# xmcd
#
# Track frame offsets: 
#        150
#        23432
#        46181
#        61092
#        89438
#        112879
#        134393
#        149683
#        169031
#        187383
#        208650
#        227445
#        256016
#
# Disc length: 3636 seconds
#
# Revision: 1
# Processed by: cddbd v1.5.2PL0 Copyright (c) Steve Scherf et al.
# Submitted via: ExactAudioCopy v1.3
#
DISCID=ac0e320d
DTITLE=伍佰 and China Blue - 纯真年代
DYEAR=2006
DGENRE=Rock
TTITLE0=我只要...
TTITLE1=纯真年代
TTITLE2=两个寂寞
TTITLE3=Cherry Lover
TTITLE4=海市蜃楼
TTITLE5=冰雨
TTITLE6=彩虹
TTITLE7=不过是爱上妳
TTITLE8=一个梦
TTITLE9=秘恋
TTITLE10=妳是我的花朵
TTITLE11=一千万个理由
TTITLE12=翻白
EXTD=
EXTT0=
EXTT1=
EXTT2=
EXTT3=
EXTT4=
EXTT5=
EXTT6=
EXTT7=
EXTT8=
EXTT9=
EXTT10=
EXTT11=
EXTT12=
PLAYORDER=
